{"title":"Sweetwater  (Western Thriller 2013)  Ed Harris, January Jones &amp;a","uid":9435013,"size":584530352,"categoryP":"video","categoryS":"movies","magnet":"?xt=urn:btih:99423a748c8fe60370a83ab28eb25b6fc62fb266&amp;dn=Sweetwater++%28Western+Thriller+2013%29++Ed+Harris%2C+January+Jones+%26a&amp;tr=udp%3A%2F%2Ftracker.openbittorrent.com%3A80&amp;tr=udp%3A%2F%2Fopen.demonii.com%3A1337&amp;tr=udp%3A%2F%2Ftracker.coppersurfer.tk%3A6969&amp;tr=udp%3A%2F%2Fexodus.desync.com%3A6969","seeders":3,"leechers":0,"uploader":"BurtonW","files":1,"time":1388885624,"description":" &lt;a href=&quot;http://www.imdb.com/title/tt2224004/?ref_=nv_sr_1&quot; rel=&quot;nofollow&quot; target=&quot;_NEW&quot;&gt;http://www.imdb.com/title/tt2224004/?ref_=nv_sr_1&lt;/a&gt;\n\n\nA very good quality film.\n\n\nNo subtitles!\n\n\nStoryline:\n\nIn the late 1800's, a beautiful former prostitute(January Jones) is trying to build an honest life with her husband in the rugged plains of New Mexico. When she catches the eye of a sadistic and powerful religious leader(Jason Isaacs), her life is violently turned upside down. She embarks on a bloody course of vengeance with the assistance of a renegade sheriff(Ed Harris) who has pretty violent tendencies of his own.\n\n\nTechnical info:\n\n\nGeneral:\n\nComplete name:                  : Sweetwater  (Western Thriller 2013)  Ed Harris, January Jones &amp; Jason Isaacs.mp4\n\nFormat                         : MPEG-4\nFormat profile                 : Base Media / Version 2\nCodec ID                       : mp42\nFile size                      : 557 MiB\nDuration                       : 1h 35mn\nOverall bit rate mode          : Variable\nOverall bit rate               : 820 Kbps\nMovie name                     :\nEncoded date                   : UTC 2014-01-04 02:04:36\nTagged date                    : UTC 2014-01-04 04:38:44\n\n\nVideo:\n\nID                             : 1\nFormat                         : AVC\nFormat/Info                    : Advanced Video Codec\nFormat profile                 : &lt;a class=&quot;__cf_email__&quot; href=&quot;/cdn-cgi/l/email-protection&quot; data-cfemail=&quot;0f426e66614f433b213f&quot;&gt;[email&amp;#160;protected]&lt;/a&gt;&lt;script cf-hash='f9e31' type=&quot;text/javascript&quot;&gt;\n/* &lt;![CDATA[ */!function(){try{var t=&quot;currentScript&quot;in document?document.currentScript:function(){for(var t=document.getElementsByTagName(&quot;script&quot;),e=t.length;e--;)if(t[e].getAttribute(&quot;cf-hash&quot;))return t[e]}();if(t&amp;&amp;t.previousSibling){var e,r,n,i,c=t.previousSibling,a=c.getAttribute(&quot;data-cfemail&quot;);if(a){for(e=&quot;&quot;,r=parseInt(a.substr(0,2),16),n=2;a.length-n;n+=2)i=parseInt(a.substr(n,2),16)^r,e+=String.fromCharCode(i);e=document.createTextNode(e),c.parentNode.replaceChild(e,c)}}}catch(u){}}();/* ]]&gt; */&lt;/script&gt;\nFormat settings, CABAC         : Yes\nFormat settings, ReFrames      : 8 frames\nCodec ID                       : avc1\nCodec ID/Info                  : Advanced Video Coding\nDuration                       : 1h 35mn\nBit rate mode                  : Variable\nBit rate                       : 656 Kbps\nWidth                          : 720 pixels\nHeight                         : 304 pixels\nDisplay aspect ratio           : 2.35:1\nFrame rate mode                : Variable\nFrame rate                     : 23.976 fps\nMinimum frame rate             : 23.974 fps\nMaximum frame rate             : 90 000.000 fps\nColor space                    : YUV\nChroma subsampling             : 4:2:0\nBit depth                      : 8 bits\nScan type                      : Progressive\nBits/(Pixel*Frame)             : 0.125\nStream size                    : 445 MiB (80%)\nWriting library                : x264 core 130 r2273 b3065e6\nEncoding settings              : Deleted\nEncoded date                   : UTC 2014-01-04 02:04:36\nTagged date                    : UTC 2014-01-04 04:38:44\nColor primaries                : BT.709\nTransfer characteristics       : BT.709\nMatrix coefficients            : BT.709\n\nAudio:\n\nID                             : 2\nFormat                         : AAC\nFormat/Info                    : Advanced Audio Codec\nFormat profile                 : LC\nCodec ID                       : 40\nDuration                       : 1h 35mn\nBit rate mode                  : Variable\nBit rate                       : 160 Kbps\nMaximum bit rate               : 200 Kbps\nChannel(s)                     : 2 channels\nChannel positions              : Front: L R\nSampling rate                  : 48.0 KHz\nCompression mode               : Lossy\nDelay relative to video        : 83ms\nStream size                    : 109 MiB (20%)\nLanguage                       : English\nEncoded date                   : UTC 2014-01-04 02:04:36\nTagged date                    : UTC 2014-01-04 04:38:43\n\n","torrent":{"xt":"urn:btih:99423a748c8fe60370a83ab28eb25b6fc62fb266","amp;dn":"Sweetwater++%28Western+Thriller+2013%29++Ed+Harris%2C+January+Jones+%26a","amp;tr":["udp%3A%2F%2Ftracker.openbittorrent.com%3A80","udp%3A%2F%2Fopen.demonii.com%3A1337","udp%3A%2F%2Ftracker.coppersurfer.tk%3A6969","udp%3A%2F%2Fexodus.desync.com%3A6969"],"infoHash":"99423a748c8fe60370a83ab28eb25b6fc62fb266","infoHashBuffer":{"type":"Buffer","data":[153,66,58,116,140,143,230,3,112,168,58,178,142,178,91,111,198,47,178,102]},"announce":[],"urlList":[]}}